<mxfile host="app.diagrams.net" modified="2023-09-02T08:05:11.474Z" agent="Mozilla/5.0 (Macintosh; Intel Mac OS X 10_15_7) AppleWebKit/537.36 (KHTML, like Gecko) Chrome/116.0.0.0 Safari/537.36 Edg/116.0.1938.62" etag="66KmIC9-dVhI5f_qrTvk" version="21.7.2" type="device">
  <diagram name="第 1 页" id="8-8hPlQ-ksldy9TDr_W_">
    <mxGraphModel dx="954" dy="648" grid="1" gridSize="10" guides="1" tooltips="1" connect="1" arrows="1" fold="1" page="1" pageScale="1" pageWidth="827" pageHeight="1169" math="0" shadow="0">
      <root>
        <mxCell id="0" />
        <mxCell id="1" parent="0" />
        <mxCell id="U31OQmgx0lQFxDMKxQWK-1" style="edgeStyle=orthogonalEdgeStyle;rounded=0;orthogonalLoop=1;jettySize=auto;html=1;exitX=1;exitY=0.5;exitDx=0;exitDy=0;entryX=0;entryY=0.5;entryDx=0;entryDy=0;endArrow=classicThin;endFill=1;" edge="1" parent="1" source="U31OQmgx0lQFxDMKxQWK-2" target="U31OQmgx0lQFxDMKxQWK-7">
          <mxGeometry relative="1" as="geometry" />
        </mxCell>
        <mxCell id="U31OQmgx0lQFxDMKxQWK-2" value="deleteMultiTablesByChunk" style="rounded=0;whiteSpace=wrap;html=1;" diagramCategory="general" diagramName="Rectangle" vertex="1" parent="1">
          <mxGeometry x="240" y="70" width="150" height="30" as="geometry" />
        </mxCell>
        <mxCell id="U31OQmgx0lQFxDMKxQWK-3" style="edgeStyle=orthogonalEdgeStyle;rounded=0;orthogonalLoop=1;jettySize=auto;html=1;exitX=1;exitY=0.5;exitDx=0;exitDy=0;entryX=0;entryY=0.5;entryDx=0;entryDy=0;endArrow=classicThin;endFill=1;" edge="1" parent="1" source="U31OQmgx0lQFxDMKxQWK-5" target="U31OQmgx0lQFxDMKxQWK-9">
          <mxGeometry relative="1" as="geometry" />
        </mxCell>
        <mxCell id="U31OQmgx0lQFxDMKxQWK-4" style="edgeStyle=orthogonalEdgeStyle;rounded=0;orthogonalLoop=1;jettySize=auto;html=1;exitX=0;exitY=0.5;exitDx=0;exitDy=0;entryX=1;entryY=0.5;entryDx=0;entryDy=0;endArrow=none;endFill=0;startArrow=classicThin;startFill=1;" edge="1" parent="1" source="U31OQmgx0lQFxDMKxQWK-5" target="U31OQmgx0lQFxDMKxQWK-24">
          <mxGeometry relative="1" as="geometry" />
        </mxCell>
        <mxCell id="U31OQmgx0lQFxDMKxQWK-5" value="deleteSingleTablesByChunk" style="rounded=0;whiteSpace=wrap;html=1;" diagramCategory="general" diagramName="Rectangle" vertex="1" parent="1">
          <mxGeometry x="240" y="130" width="150" height="30" as="geometry" />
        </mxCell>
        <mxCell id="U31OQmgx0lQFxDMKxQWK-6" style="edgeStyle=orthogonalEdgeStyle;rounded=0;orthogonalLoop=1;jettySize=auto;html=1;exitX=1;exitY=0.5;exitDx=0;exitDy=0;endArrow=classicThin;endFill=1;" edge="1" parent="1" source="U31OQmgx0lQFxDMKxQWK-7" target="U31OQmgx0lQFxDMKxQWK-11">
          <mxGeometry relative="1" as="geometry">
            <Array as="points">
              <mxPoint x="660" y="85" />
              <mxPoint x="660" y="115" />
            </Array>
          </mxGeometry>
        </mxCell>
        <mxCell id="U31OQmgx0lQFxDMKxQWK-7" value="removeRowsInTblRowMap" style="rounded=0;whiteSpace=wrap;html=1;" diagramCategory="general" diagramName="Rectangle" vertex="1" parent="1">
          <mxGeometry x="460" y="70" width="170" height="30" as="geometry" />
        </mxCell>
        <mxCell id="U31OQmgx0lQFxDMKxQWK-8" style="edgeStyle=orthogonalEdgeStyle;rounded=0;orthogonalLoop=1;jettySize=auto;html=1;exitX=1;exitY=0.5;exitDx=0;exitDy=0;endArrow=none;endFill=0;" edge="1" parent="1">
          <mxGeometry relative="1" as="geometry">
            <mxPoint x="660" y="110" as="targetPoint" />
            <mxPoint x="620" y="141" as="sourcePoint" />
            <Array as="points">
              <mxPoint x="660" y="141" />
              <mxPoint x="660" y="119" />
            </Array>
          </mxGeometry>
        </mxCell>
        <mxCell id="U31OQmgx0lQFxDMKxQWK-9" value="deleteOneRow" style="rounded=0;whiteSpace=wrap;html=1;" diagramCategory="general" diagramName="Rectangle" vertex="1" parent="1">
          <mxGeometry x="460" y="130" width="170" height="30" as="geometry" />
        </mxCell>
        <mxCell id="U31OQmgx0lQFxDMKxQWK-10" style="edgeStyle=orthogonalEdgeStyle;rounded=0;orthogonalLoop=1;jettySize=auto;html=1;exitX=1;exitY=0.5;exitDx=0;exitDy=0;entryX=0;entryY=0.5;entryDx=0;entryDy=0;startArrow=none;startFill=0;endArrow=classicThin;endFill=1;" edge="1" parent="1" source="U31OQmgx0lQFxDMKxQWK-11" target="U31OQmgx0lQFxDMKxQWK-36">
          <mxGeometry relative="1" as="geometry" />
        </mxCell>
        <mxCell id="U31OQmgx0lQFxDMKxQWK-11" value="removeRow" style="rounded=0;whiteSpace=wrap;html=1;" diagramCategory="general" diagramName="Rectangle" vertex="1" parent="1">
          <mxGeometry x="690" y="100" width="150" height="30" as="geometry" />
        </mxCell>
        <mxCell id="U31OQmgx0lQFxDMKxQWK-12" value="InsertValues" style="swimlane;fontStyle=1;align=center;verticalAlign=top;childLayout=stackLayout;horizontal=1;startSize=26;horizontalStack=0;resizeParent=1;resizeParentMax=0;resizeLast=0;collapsible=1;marginBottom=0;" diagramCategory="uml" diagramName="Class" vertex="1" parent="1">
          <mxGeometry x="240" y="200" width="150" height="52" as="geometry" />
        </mxCell>
        <mxCell id="U31OQmgx0lQFxDMKxQWK-13" value="+ addRecord()" style="text;strokeColor=none;fillColor=none;align=left;verticalAlign=top;spacingLeft=4;spacingRight=4;overflow=hidden;rotatable=0;points=[[0,0.5],[1,0.5]];portConstraint=eastwest;" vertex="1" parent="U31OQmgx0lQFxDMKxQWK-12">
          <mxGeometry y="26" width="150" height="26" as="geometry" />
        </mxCell>
        <mxCell id="U31OQmgx0lQFxDMKxQWK-14" value="InsertValues" style="swimlane;fontStyle=1;align=center;verticalAlign=top;childLayout=stackLayout;horizontal=1;startSize=26;horizontalStack=0;resizeParent=1;resizeParentMax=0;resizeLast=0;collapsible=1;marginBottom=0;" diagramCategory="uml" diagramName="Class" vertex="1" parent="1">
          <mxGeometry x="460" y="200" width="170" height="52" as="geometry" />
        </mxCell>
        <mxCell id="U31OQmgx0lQFxDMKxQWK-15" value="+ addRecordWithAutoIDHint()" style="text;strokeColor=none;fillColor=none;align=left;verticalAlign=top;spacingLeft=4;spacingRight=4;overflow=hidden;rotatable=0;points=[[0,0.5],[1,0.5]];portConstraint=eastwest;" vertex="1" parent="U31OQmgx0lQFxDMKxQWK-14">
          <mxGeometry y="26" width="170" height="26" as="geometry" />
        </mxCell>
        <mxCell id="U31OQmgx0lQFxDMKxQWK-16" value="InsertExec" style="swimlane;fontStyle=1;align=center;verticalAlign=top;childLayout=stackLayout;horizontal=1;startSize=26;horizontalStack=0;resizeParent=1;resizeParentMax=0;resizeLast=0;collapsible=1;marginBottom=0;fillColor=#FFE6CC;" diagramCategory="uml" diagramName="Class" vertex="1" parent="1">
          <mxGeometry x="50" y="252" width="90" height="52" as="geometry" />
        </mxCell>
        <mxCell id="U31OQmgx0lQFxDMKxQWK-17" value="+ Next()" style="text;strokeColor=none;fillColor=none;align=left;verticalAlign=top;spacingLeft=4;spacingRight=4;overflow=hidden;rotatable=0;points=[[0,0.5],[1,0.5]];portConstraint=eastwest;" vertex="1" parent="U31OQmgx0lQFxDMKxQWK-16">
          <mxGeometry y="26" width="90" height="26" as="geometry" />
        </mxCell>
        <mxCell id="U31OQmgx0lQFxDMKxQWK-18" value="InsertExec" style="swimlane;fontStyle=1;align=center;verticalAlign=top;childLayout=stackLayout;horizontal=1;startSize=26;horizontalStack=0;resizeParent=1;resizeParentMax=0;resizeLast=0;collapsible=1;marginBottom=0;" diagramCategory="uml" diagramName="Class" vertex="1" parent="1">
          <mxGeometry x="460" y="320" width="170" height="52" as="geometry" />
        </mxCell>
        <mxCell id="U31OQmgx0lQFxDMKxQWK-19" value="+ UpdateDupRow()" style="text;strokeColor=none;fillColor=none;align=left;verticalAlign=top;spacingLeft=4;spacingRight=4;overflow=hidden;rotatable=0;points=[[0,0.5],[1,0.5]];portConstraint=eastwest;" vertex="1" parent="U31OQmgx0lQFxDMKxQWK-18">
          <mxGeometry y="26" width="170" height="26" as="geometry" />
        </mxCell>
        <mxCell id="U31OQmgx0lQFxDMKxQWK-20" value="InsertExec" style="swimlane;fontStyle=1;align=center;verticalAlign=top;childLayout=stackLayout;horizontal=1;startSize=26;horizontalStack=0;resizeParent=1;resizeParentMax=0;resizeLast=0;collapsible=1;marginBottom=0;" diagramCategory="uml" diagramName="Class" vertex="1" parent="1">
          <mxGeometry x="690" y="320" width="150" height="52" as="geometry" />
        </mxCell>
        <mxCell id="U31OQmgx0lQFxDMKxQWK-21" value="+ doDupRowUpdate()" style="text;strokeColor=none;fillColor=none;align=left;verticalAlign=top;spacingLeft=4;spacingRight=4;overflow=hidden;rotatable=0;points=[[0,0.5],[1,0.5]];portConstraint=eastwest;" vertex="1" parent="U31OQmgx0lQFxDMKxQWK-20">
          <mxGeometry y="26" width="150" height="26" as="geometry" />
        </mxCell>
        <mxCell id="U31OQmgx0lQFxDMKxQWK-22" style="edgeStyle=orthogonalEdgeStyle;rounded=0;orthogonalLoop=1;jettySize=auto;html=1;exitX=1;exitY=0.75;exitDx=0;exitDy=0;entryX=0;entryY=0.5;entryDx=0;entryDy=0;endArrow=classicThin;endFill=1;" edge="1" parent="1" source="U31OQmgx0lQFxDMKxQWK-23" target="U31OQmgx0lQFxDMKxQWK-2">
          <mxGeometry relative="1" as="geometry" />
        </mxCell>
        <mxCell id="U31OQmgx0lQFxDMKxQWK-23" value="DeleteExec" style="swimlane;fontStyle=1;align=center;verticalAlign=top;childLayout=stackLayout;horizontal=1;startSize=26;horizontalStack=0;resizeParent=1;resizeParentMax=0;resizeLast=0;collapsible=1;marginBottom=0;fillColor=#FFE6CC;" diagramCategory="uml" diagramName="Class" vertex="1" parent="1">
          <mxGeometry x="50" y="89" width="90" height="52" as="geometry" />
        </mxCell>
        <mxCell id="U31OQmgx0lQFxDMKxQWK-24" value="+ Next()" style="text;strokeColor=none;fillColor=none;align=left;verticalAlign=top;spacingLeft=4;spacingRight=4;overflow=hidden;rotatable=0;points=[[0,0.5],[1,0.5]];portConstraint=eastwest;" vertex="1" parent="U31OQmgx0lQFxDMKxQWK-23">
          <mxGeometry y="26" width="90" height="26" as="geometry" />
        </mxCell>
        <mxCell id="U31OQmgx0lQFxDMKxQWK-25" value="UpdateExec" style="swimlane;fontStyle=1;align=center;verticalAlign=top;childLayout=stackLayout;horizontal=1;startSize=26;horizontalStack=0;resizeParent=1;resizeParentMax=0;resizeLast=0;collapsible=1;marginBottom=0;fillColor=#FFE6CC;" diagramCategory="uml" diagramName="Class" vertex="1" parent="1">
          <mxGeometry x="50" y="420" width="90" height="52" as="geometry" />
        </mxCell>
        <mxCell id="U31OQmgx0lQFxDMKxQWK-26" value="+ Next()" style="text;strokeColor=none;fillColor=none;align=left;verticalAlign=top;spacingLeft=4;spacingRight=4;overflow=hidden;rotatable=0;points=[[0,0.5],[1,0.5]];portConstraint=eastwest;" vertex="1" parent="U31OQmgx0lQFxDMKxQWK-25">
          <mxGeometry y="26" width="90" height="26" as="geometry" />
        </mxCell>
        <mxCell id="U31OQmgx0lQFxDMKxQWK-27" value="InsertExec" style="swimlane;fontStyle=1;align=center;verticalAlign=top;childLayout=stackLayout;horizontal=1;startSize=26;horizontalStack=0;resizeParent=1;resizeParentMax=0;resizeLast=0;collapsible=1;marginBottom=0;" diagramCategory="uml" diagramName="Class" vertex="1" parent="1">
          <mxGeometry x="240" y="320" width="150" height="52" as="geometry" />
        </mxCell>
        <mxCell id="U31OQmgx0lQFxDMKxQWK-28" value="+ batchUpdateDupRows()" style="text;strokeColor=none;fillColor=none;align=left;verticalAlign=top;spacingLeft=4;spacingRight=4;overflow=hidden;rotatable=0;points=[[0,0.5],[1,0.5]];portConstraint=eastwest;" vertex="1" parent="U31OQmgx0lQFxDMKxQWK-27">
          <mxGeometry y="26" width="150" height="26" as="geometry" />
        </mxCell>
        <mxCell id="U31OQmgx0lQFxDMKxQWK-29" style="edgeStyle=orthogonalEdgeStyle;rounded=0;orthogonalLoop=1;jettySize=auto;html=1;exitX=1;exitY=0.5;exitDx=0;exitDy=0;entryX=0;entryY=0.5;entryDx=0;entryDy=0;startArrow=none;startFill=0;endArrow=classicThin;endFill=1;" edge="1" parent="1" source="U31OQmgx0lQFxDMKxQWK-17" target="U31OQmgx0lQFxDMKxQWK-13">
          <mxGeometry relative="1" as="geometry" />
        </mxCell>
        <mxCell id="U31OQmgx0lQFxDMKxQWK-30" style="edgeStyle=orthogonalEdgeStyle;rounded=0;orthogonalLoop=1;jettySize=auto;html=1;exitX=1;exitY=0.5;exitDx=0;exitDy=0;entryX=0;entryY=0.5;entryDx=0;entryDy=0;startArrow=none;startFill=0;endArrow=classicThin;endFill=1;" edge="1" parent="1" source="U31OQmgx0lQFxDMKxQWK-17" target="U31OQmgx0lQFxDMKxQWK-28">
          <mxGeometry relative="1" as="geometry" />
        </mxCell>
        <mxCell id="U31OQmgx0lQFxDMKxQWK-31" style="edgeStyle=orthogonalEdgeStyle;rounded=0;orthogonalLoop=1;jettySize=auto;html=1;exitX=1;exitY=0.5;exitDx=0;exitDy=0;entryX=0;entryY=0.5;entryDx=0;entryDy=0;startArrow=none;startFill=0;endArrow=classicThin;endFill=1;" edge="1" parent="1" source="U31OQmgx0lQFxDMKxQWK-13" target="U31OQmgx0lQFxDMKxQWK-15">
          <mxGeometry relative="1" as="geometry" />
        </mxCell>
        <mxCell id="U31OQmgx0lQFxDMKxQWK-32" style="edgeStyle=orthogonalEdgeStyle;rounded=0;orthogonalLoop=1;jettySize=auto;html=1;exitX=1;exitY=0.5;exitDx=0;exitDy=0;entryX=0;entryY=0.5;entryDx=0;entryDy=0;startArrow=none;startFill=0;endArrow=classicThin;endFill=1;" edge="1" parent="1" source="U31OQmgx0lQFxDMKxQWK-28" target="U31OQmgx0lQFxDMKxQWK-19">
          <mxGeometry relative="1" as="geometry" />
        </mxCell>
        <mxCell id="U31OQmgx0lQFxDMKxQWK-33" style="edgeStyle=orthogonalEdgeStyle;rounded=0;orthogonalLoop=1;jettySize=auto;html=1;exitX=1;exitY=0.5;exitDx=0;exitDy=0;entryX=0;entryY=0.5;entryDx=0;entryDy=0;startArrow=none;startFill=0;endArrow=classicThin;endFill=1;" edge="1" parent="1" source="U31OQmgx0lQFxDMKxQWK-15" target="U31OQmgx0lQFxDMKxQWK-38">
          <mxGeometry relative="1" as="geometry" />
        </mxCell>
        <mxCell id="U31OQmgx0lQFxDMKxQWK-34" style="edgeStyle=orthogonalEdgeStyle;rounded=0;orthogonalLoop=1;jettySize=auto;html=1;exitX=1;exitY=0.5;exitDx=0;exitDy=0;entryX=0;entryY=0.5;entryDx=0;entryDy=0;startArrow=none;startFill=0;endArrow=classicThin;endFill=1;" edge="1" parent="1" source="U31OQmgx0lQFxDMKxQWK-19" target="U31OQmgx0lQFxDMKxQWK-21">
          <mxGeometry relative="1" as="geometry" />
        </mxCell>
        <mxCell id="U31OQmgx0lQFxDMKxQWK-35" value="Table" style="swimlane;fontStyle=1;align=center;verticalAlign=top;childLayout=stackLayout;horizontal=1;startSize=26;horizontalStack=0;resizeParent=1;resizeParentMax=0;resizeLast=0;collapsible=1;marginBottom=0;fillColor=#FFCCCC;" diagramCategory="uml" diagramName="Class" vertex="1" parent="1">
          <mxGeometry x="1030" y="76" width="130" height="52" as="geometry" />
        </mxCell>
        <mxCell id="U31OQmgx0lQFxDMKxQWK-36" value="+ RemoveReocrd()" style="text;strokeColor=none;fillColor=none;align=left;verticalAlign=top;spacingLeft=4;spacingRight=4;overflow=hidden;rotatable=0;points=[[0,0.5],[1,0.5]];portConstraint=eastwest;" vertex="1" parent="U31OQmgx0lQFxDMKxQWK-35">
          <mxGeometry y="26" width="130" height="26" as="geometry" />
        </mxCell>
        <mxCell id="U31OQmgx0lQFxDMKxQWK-37" value="Table" style="swimlane;fontStyle=1;align=center;verticalAlign=top;childLayout=stackLayout;horizontal=1;startSize=26;horizontalStack=0;resizeParent=1;resizeParentMax=0;resizeLast=0;collapsible=1;marginBottom=0;fillColor=#FFCCCC;" diagramCategory="uml" diagramName="Class" vertex="1" parent="1">
          <mxGeometry x="1030" y="200" width="130" height="52" as="geometry" />
        </mxCell>
        <mxCell id="U31OQmgx0lQFxDMKxQWK-38" value="+ AddReocrd()" style="text;strokeColor=none;fillColor=none;align=left;verticalAlign=top;spacingLeft=4;spacingRight=4;overflow=hidden;rotatable=0;points=[[0,0.5],[1,0.5]];portConstraint=eastwest;" vertex="1" parent="U31OQmgx0lQFxDMKxQWK-37">
          <mxGeometry y="26" width="130" height="26" as="geometry" />
        </mxCell>
        <mxCell id="U31OQmgx0lQFxDMKxQWK-39" style="edgeStyle=orthogonalEdgeStyle;rounded=0;orthogonalLoop=1;jettySize=auto;html=1;exitX=1;exitY=0.75;exitDx=0;exitDy=0;entryX=0;entryY=0.5;entryDx=0;entryDy=0;startArrow=none;startFill=0;endArrow=classicThin;endFill=1;" edge="1" parent="1" source="U31OQmgx0lQFxDMKxQWK-43" target="U31OQmgx0lQFxDMKxQWK-42">
          <mxGeometry relative="1" as="geometry" />
        </mxCell>
        <mxCell id="U31OQmgx0lQFxDMKxQWK-40" style="edgeStyle=orthogonalEdgeStyle;rounded=0;orthogonalLoop=1;jettySize=auto;html=1;exitX=1;exitY=0.5;exitDx=0;exitDy=0;entryX=0;entryY=0.5;entryDx=0;entryDy=0;startArrow=none;startFill=0;endArrow=classicThin;endFill=1;" edge="1" parent="1" source="U31OQmgx0lQFxDMKxQWK-21" target="U31OQmgx0lQFxDMKxQWK-44">
          <mxGeometry relative="1" as="geometry" />
        </mxCell>
        <mxCell id="U31OQmgx0lQFxDMKxQWK-41" value="Table" style="swimlane;fontStyle=1;align=center;verticalAlign=top;childLayout=stackLayout;horizontal=1;startSize=26;horizontalStack=0;resizeParent=1;resizeParentMax=0;resizeLast=0;collapsible=1;marginBottom=0;fillColor=#FFCCCC;" diagramCategory="uml" diagramName="Class" vertex="1" parent="1">
          <mxGeometry x="1030" y="320" width="130" height="52" as="geometry" />
        </mxCell>
        <mxCell id="U31OQmgx0lQFxDMKxQWK-42" value="+ UpdateReocrd()" style="text;strokeColor=none;fillColor=none;align=left;verticalAlign=top;spacingLeft=4;spacingRight=4;overflow=hidden;rotatable=0;points=[[0,0.5],[1,0.5]];portConstraint=eastwest;" vertex="1" parent="U31OQmgx0lQFxDMKxQWK-41">
          <mxGeometry y="26" width="130" height="26" as="geometry" />
        </mxCell>
        <mxCell id="U31OQmgx0lQFxDMKxQWK-43" value="write" style="swimlane;fontStyle=1;align=center;verticalAlign=top;childLayout=stackLayout;horizontal=1;startSize=26;horizontalStack=0;resizeParent=1;resizeParentMax=0;resizeLast=0;collapsible=1;marginBottom=0;" diagramCategory="uml" diagramName="Class" vertex="1" parent="1">
          <mxGeometry x="880" y="320" width="100" height="52" as="geometry" />
        </mxCell>
        <mxCell id="U31OQmgx0lQFxDMKxQWK-44" value="+ updateReocrd()" style="text;strokeColor=none;fillColor=none;align=left;verticalAlign=top;spacingLeft=4;spacingRight=4;overflow=hidden;rotatable=0;points=[[0,0.5],[1,0.5]];portConstraint=eastwest;" vertex="1" parent="U31OQmgx0lQFxDMKxQWK-43">
          <mxGeometry y="26" width="100" height="26" as="geometry" />
        </mxCell>
        <mxCell id="U31OQmgx0lQFxDMKxQWK-45" style="edgeStyle=orthogonalEdgeStyle;rounded=0;orthogonalLoop=1;jettySize=auto;html=1;exitX=1;exitY=0.5;exitDx=0;exitDy=0;entryX=0;entryY=0.5;entryDx=0;entryDy=0;startArrow=none;startFill=0;endArrow=classicThin;endFill=1;" edge="1" parent="1" source="U31OQmgx0lQFxDMKxQWK-26" target="U31OQmgx0lQFxDMKxQWK-44">
          <mxGeometry relative="1" as="geometry">
            <Array as="points">
              <mxPoint x="850" y="459" />
              <mxPoint x="850" y="359" />
            </Array>
          </mxGeometry>
        </mxCell>
      </root>
    </mxGraphModel>
  </diagram>
</mxfile>
